<svg xmlns="http://www.w3.org/2000/svg" xmlns:xlink="http://www.w3.org/1999/xlink" width="1000" zoomAndPan="magnify" viewBox="0 0 750 749.999995" height="1000" preserveAspectRatio="xMidYMid meet" version="1.0"><defs><g/></defs><g fill="#9cdaff" fill-opacity="1"><g transform="translate(81.195373, 467.463295)"><g><path d="M 173.265625 -164.296875 L 135.140625 -196.265625 L 49.34375 -196.265625 L 11.21875 -164.296875 L 11.21875 -110.75 L 44.578125 -83.265625 L 111.875 -72.0625 L 117.203125 -67.296875 L 117.203125 -54.109375 L 110.1875 -48.21875 L 69.25 -48.21875 L 63.640625 -68.6875 L 11.21875 -68.6875 L 11.21875 -33.078125 L 51.03125 0 L 135.421875 0 L 175.515625 -33.078125 L 175.515625 -89.15625 L 142.703125 -114.671875 L 75.140625 -125.890625 L 68.96875 -130.65625 L 68.96875 -142.15625 L 76.265625 -147.75 L 115.234375 -147.75 L 120.84375 -127.296875 L 173.265625 -127.296875 Z M 173.265625 -164.296875 "/></g></g></g><g fill="#9cdaff" fill-opacity="1"><g transform="translate(268.202815, 467.463295)"><g><path d="M 217.296875 -153.359375 L 217.296875 -196.265625 L 123.640625 -196.265625 L 123.640625 -153.359375 L 137.390625 -147.75 L 93.640625 -109.625 L 93.640625 -147.75 L 107.109375 -153.359375 L 107.109375 -196.265625 L 12.34375 -196.265625 L 12.34375 -153.359375 L 33.640625 -147.75 L 33.640625 -48.21875 L 12.34375 -42.609375 L 12.34375 0 L 107.65625 0 L 107.65625 -42.609375 L 93.640625 -48.21875 L 93.640625 -68.6875 L 116.078125 -87.484375 L 137.9375 -48.21875 L 123.921875 -42.609375 L 123.921875 0 L 217.296875 0 L 217.296875 -42.609375 L 197.390625 -48.21875 L 158.40625 -121.40625 L 190.09375 -147.75 Z M 217.296875 -153.359375 "/></g></g></g><g fill="#9cdaff" fill-opacity="1"><g transform="translate(493.340703, 467.463295)"><g><path d="M 174.953125 -164.296875 L 136.828125 -196.265625 L 55.796875 -196.265625 L 12.34375 -160.09375 L 12.34375 -37.5625 L 57.484375 0 L 135.140625 0 C 141.679688 -5.414062 148.316406 -10.878906 155.046875 -16.390625 C 161.773438 -21.910156 168.410156 -27.472656 174.953125 -33.078125 L 174.953125 -68.6875 L 122.53125 -68.6875 L 116.921875 -48.21875 L 78.5 -48.21875 L 70.09375 -54.953125 L 70.09375 -141.3125 L 78.21875 -147.75 L 116.921875 -147.75 L 122.53125 -127.296875 L 174.953125 -127.296875 Z M 174.953125 -164.296875 "/></g></g></g><path stroke-linecap="butt" transform="matrix(5.391744, 0, 0, 5.391744, 74.999999, 180.897227)" fill="none" stroke-linejoin="miter" d="M 32.131736 21.531262 L 25.06074 15.602783 L 9.153173 15.602783 L 2.082177 21.531262 L 2.082177 31.458912 L 8.264951 36.549884 L 20.744245 38.63206 L 21.734619 39.520282 L 21.734619 41.958182 L 20.439236 43.049984 L 12.847333 43.049984 L 11.80697 39.253671 L 2.082177 39.253671 L 2.082177 45.868239 L 9.458182 52.0003 L 25.111454 52.0003 L 32.55049 45.868239 L 32.55049 35.458082 L 26.469868 30.735149 L 13.939136 28.652972 L 12.796619 27.764751 L 12.796619 25.63186 L 14.142717 24.590772 L 21.365855 24.590772 L 22.406943 28.386361 L 32.131736 28.386361 Z M 74.978639 23.549684 L 74.978639 15.602783 L 57.611954 15.602783 L 57.611954 23.549684 L 60.163598 24.590772 L 52.051514 31.661768 L 52.051514 24.590772 L 54.552444 23.549684 L 54.552444 15.602783 L 36.969138 15.602783 L 36.969138 23.549684 L 40.92991 24.590772 L 40.92991 43.049984 L 36.969138 44.091072 L 36.969138 52.0003 L 54.653873 52.0003 L 54.653873 44.091072 L 52.051514 43.049984 L 52.051514 39.253671 L 56.215143 35.775407 L 60.265027 43.049984 L 57.662668 44.091072 L 57.662668 52.0003 L 74.978639 52.0003 L 74.978639 44.091072 L 71.297519 43.049984 L 64.06134 29.478163 L 69.939106 24.590772 Z M 108.888991 21.531262 L 101.817995 15.602783 L 86.787058 15.602783 L 78.724963 22.305739 L 78.724963 45.030008 L 87.104383 52.0003 L 101.50067 52.0003 C 102.719258 50.992538 103.950886 49.981154 105.194831 48.966147 C 106.447469 47.941722 107.679098 46.909328 108.888991 45.868239 L 108.888991 39.253671 L 99.164923 39.253671 L 98.123835 43.049984 L 91.0014 43.049984 L 89.44013 41.805315 L 89.44013 25.797044 L 90.950686 24.590772 L 98.123835 24.590772 L 99.164923 28.386361 L 108.888991 28.386361 Z M 108.888991 21.531262 " stroke="#38b6ff" stroke-width="3.4125" stroke-opacity="1" stroke-miterlimit="4"/></svg>